<?xml version="1.0" encoding="utf-8"?>
<!-- Generator: Adobe Illustrator 16.0.0, SVG Export Plug-In . SVG Version: 6.00 Build 0)  -->
<!DOCTYPE svg PUBLIC "-//W3C//DTD SVG 1.1//EN" "http://www.w3.org/Graphics/SVG/1.1/DTD/svg11.dtd">
<svg version="1.1" id="Layer_1" xmlns="http://www.w3.org/2000/svg" xmlns:xlink="http://www.w3.org/1999/xlink" x="0px" y="0px"
	 width="40px" height="40px" viewBox="0 0 40 40" enable-background="new 0 0 40 40" xml:space="preserve">
<g>
	<path fill="#FF5252" d="M12.625,16.998c1.19,0,2.225-0.415,3.099-1.07v0.82h3V5.251h-2.175l-0.544,0.922
		c-0.844-0.697-1.912-1.172-3.255-1.172C9.376,5.001,7.076,7.7,7.076,11C7.076,14.324,9.301,16.998,12.625,16.998z M13.05,7.9
		c1.142,0,2.172,0.657,2.674,1.693v2.788c-0.515,1.05-1.577,1.717-2.674,1.717c-1.524,0-2.774-1.249-2.774-3.099
		S11.45,7.9,13.05,7.9z"/>
	<rect x="20.226" y="9.5" fill="#FF5252" width="12.698" height="2.999"/>
	<path fill="#FF5252" d="M13.825,23.002c-3.324,0-5.999,2.699-5.999,5.998c0,3.324,2.675,5.999,5.999,5.999
		c3.299,0,5.998-2.675,5.998-5.999C19.823,25.701,17.124,23.002,13.825,23.002z M13.825,32.1c-1.675,0-2.975-1.35-2.975-3.1
		c0-1.699,1.3-3.099,2.975-3.099c1.624,0,2.974,1.449,2.974,3.099C16.799,30.825,15.55,32.1,13.825,32.1z"/>
	<polygon fill="#FF5252" points="31.898,23.252 28.674,23.252 24.826,28.226 24.826,17.778 21.826,17.778 21.826,34.749 
		24.826,34.749 24.826,28.501 29.225,34.749 32.799,34.749 28.039,28.34 	"/>
</g>
</svg>
